<svg width="140" height="140" viewBox="0 0 140 140" fill="none" xmlns="http://www.w3.org/2000/svg">
<rect width="140" height="140" fill="#F2F2F2"/>
<path d="M70 63C79.665 63 87.5 55.165 87.5 45.5C87.5 35.835 79.665 28 70 28C60.335 28 52.5 35.835 52.5 45.5C52.5 55.165 60.335 63 70 63Z" fill="#97979A"/>
<path d="M70 70C65.4037 70 60.8525 70.9053 56.6061 72.6642C52.3597 74.4231 48.5013 77.0012 45.2513 80.2513C38.6875 86.815 35 95.7174 35 105H105C105 95.7174 101.313 86.815 94.7487 80.2513C88.185 73.6875 79.2826 70 70 70V70Z" fill="#97979A"/>
</svg>
