<?xml version="1.0" encoding="UTF-8" standalone="no"?><!-- Generator: Gravit.io --><svg xmlns="http://www.w3.org/2000/svg" xmlns:xlink="http://www.w3.org/1999/xlink" style="isolation:isolate" viewBox="0 0 22.667 26.173" width="22.667pt" height="26.173pt"><defs><clipPath id="_clipPath_lbxSFSCtqi7ABBz0HnnYoGa1vqIThCZW"><rect width="22.667" height="26.173"/></clipPath></defs><g clip-path="url(#_clipPath_lbxSFSCtqi7ABBz0HnnYoGa1vqIThCZW)"><clipPath id="_clipPath_DadSJxwYkW0mfA9DvRrURsxU5Kx7Ikvv"><rect x="0" y="0" width="22.667" height="26.173" transform="matrix(1,0,0,1,0,0)" fill="rgb(255,255,255)"/></clipPath><g clip-path="url(#_clipPath_DadSJxwYkW0mfA9DvRrURsxU5Kx7Ikvv)"><g><clipPath id="_clipPath_3tb2H2JBuONDQNjRfQkt4jEpdYx7IUUV"><rect x="0" y="0" width="22.667" height="26.173" transform="matrix(1,0,0,1,0,0)" fill="rgb(255,255,255)"/></clipPath><g clip-path="url(#_clipPath_3tb2H2JBuONDQNjRfQkt4jEpdYx7IUUV)"><g><g><path d=" M 11.333 0 L 0 6.544 L 0 19.63 L 11.333 26.173 L 22.667 19.63 L 22.667 6.544 L 11.333 0 Z  M 21.153 18.756 L 11.333 24.425 L 1.514 18.756 L 1.514 7.417 L 11.333 1.748 L 21.153 7.417 L 21.153 18.756 Z " fill="rgb(244,136,180)"/><path d=" M 10.522 5.125 L 10.522 6.961 L 10.522 10.777 L 5.623 13.606 L 5.623 7.954 L 4.033 8.872 L 4.033 14.524 L 4.033 16.36 L 4.033 17.302 L 5.623 18.219 L 5.623 15.442 L 10.522 12.613 L 10.522 12.613 L 10.522 19.212 L 10.522 21.048 L 11.333 21.516 L 12.11 21.067 L 12.11 19.232 L 12.11 12.593 L 12.11 12.593 L 17.044 15.441 L 17.044 18.219 L 18.634 17.301 L 18.634 16.359 L 18.634 14.524 L 18.634 8.872 L 12.11 5.106 L 11.333 4.657 L 10.522 5.125 Z  M 17.044 9.79 L 17.044 13.606 L 12.11 10.758 L 12.11 6.942 L 17.044 9.79 Z " fill="rgb(244,136,180)"/></g></g></g></g></g></g></svg>