<svg id="Layer_1" data-name="Layer 1" xmlns="http://www.w3.org/2000/svg" width="32" height="41" viewBox="0 0 32 41">

	<g transform="matrix(0.06 0 0 0.06 20.8 21.71)"  >
	<g style=""   >
		<g transform="matrix(0.13 0 0 -0.13 -78.44 -82.46)"  >
	<path style="fill: #fff; fill-rule: nonzero; opacity: 1;"  transform=" translate(-2905.06, -3681.99)" d="M 1977 5533 c -9 -8 -9 -576 -1 -597 c 6 -14 69 -16 620 -16 l 614 0 l 0 -1362 c 0 -1312 -1 -1366 -20 -1439 c -10 -42 -32 -106 -48 -141 c -16 -35 -27 -69 -25 -75 c 6 -18 150 -70 214 -77 c 70 -9 177 13 250 49 c 115 59 223 203 249 334 c 7 37 10 563 10 1692 l -1 1639 l -928 0 c -510 0 -931 -3 -934 -7 z" stroke-linecap="round" />
	</g>
		<g transform="matrix(0.13 0 0 -0.13 -17.49 -21.83)"  >
	<path style="fill: #fff; fill-rule: nonzero; opacity: 1;"  transform=" translate(-3373.78, -3215.88)" d="M 4140 3868 c 0 -1797 2 -1721 -53 -1858 c -42 -103 -88 -171 -177 -261 c -124 -124 -254 -192 -425 -219 c -248 -40 -498 48 -680 241 c -114 120 -184 271 -200 429 c -11 111 25 100 -314 100 c -227 0 -301 -3 -309 -12 c -10 -13 -2 -161 13 -243 c 51 -280 185 -536 385 -735 c 115 -115 221 -191 361 -262 c 226 -115 407 -154 679 -145 c 186 6 233 13 375 59 c 417 134 756 465 893 873 c 84 252 82 212 82 1749 l 0 1340 l -302 303 c -167 166 -309 303 -315 303 c -10 0 -13 -339 -13 -1662 z" stroke-linecap="round" />
	</g>
		<g transform="matrix(0.13 0 0 -0.13 -137.64 -160.32)"  >
	<path style="fill: #fff; fill-rule: nonzero; opacity: 1;"  transform=" translate(-2449.19, -4304.5)" d="M 1990 4607 c 0 -7 136 -149 303 -315 l 303 -303 l 155 3 l 154 3 l 3 290 c 1 160 0 300 -3 313 l -5 22 l -455 0 c -362 0 -455 -3 -455 -13 z" stroke-linecap="round" />
	</g>
		<g transform="matrix(0.13 0 0 -0.13 -229.73 200.37)"  >
	<path style="fill: #fff; fill-rule: nonzero; opacity: 1;"  transform=" translate(-1762.36, -1590)" d="M 1401 2029 c -138 -139 -251 -255 -251 -260 c 0 -4 14 -39 32 -76 c 104 -219 283 -426 483 -557 c 105 -69 252 -146 279 -146 c 6 0 16 -4 22 -9 c 20 -19 312 -81 382 -81 c 39 0 35 18 -10 45 c -43 25 -251 228 -303 295 c -107 139 -207 314 -250 435 c -9 28 -21 59 -26 70 c -35 82 -75 286 -84 428 c -4 59 -11 107 -16 107 c -4 0 -120 -113 -258 -251 z" stroke-linecap="round" />
	</g>
	</g>
	</g>
</svg>

