<svg width="1280" height="720" viewBox="0 0 1280 720" fill="none" xmlns="http://www.w3.org/2000/svg">
<path d="M319.76 599.094L719.91 198.944L960 599.094H319.76Z" fill="#97979A"/>
<path d="M401.158 280.342C445.357 280.342 481.188 244.511 481.188 200.312C481.188 156.113 445.357 120.282 401.158 120.282C356.959 120.282 321.128 156.113 321.128 200.312C321.128 244.511 356.959 280.342 401.158 280.342Z" fill="#97979A"/>
<rect x="1" y="1" width="1278" height="718" rx="16" fill="#F2F2F2" stroke="#D8D8D9" stroke-width="2"/>
<path d="M1 17C1 8.16344 8.16344 1 17 1H1263C1271.84 1 1279 8.16345 1279 17V61H1V17Z" fill="white" stroke="#D8D8D9" stroke-width="2"/>
<path d="M461 532.188L684.293 308.895L818.269 532.188H461Z" fill="#D8D8D9"/>
<path d="M506.422 354.317C531.086 354.317 551.081 334.323 551.081 309.659C551.081 284.994 531.086 265 506.422 265C481.758 265 461.763 284.994 461.763 309.659C461.763 334.323 481.758 354.317 506.422 354.317Z" fill="#D8D8D9"/>
<circle cx="36" cy="31" r="9" stroke="#D8D8D9" stroke-width="2"/>
<circle cx="66" cy="31" r="9" stroke="#D8D8D9" stroke-width="2"/>
<circle cx="96" cy="31" r="9" stroke="#D8D8D9" stroke-width="2"/>
</svg>
