<svg id="Layer_1" data-name="Layer 1" xmlns="http://www.w3.org/2000/svg" width="127" height="90" viewBox="0 0 127 90"><title>Artboard 1</title><path d="M30.475,53.758l-.2.16c.36,2.28.519,3.44.519,3.52a3.971,3.971,0,0,1-.519,2.12,7.041,7.041,0,0,1,.12,1.319,16.627,16.627,0,0,1-1.8,6.439,1.2,1.2,0,0,1-.32.88,1.534,1.534,0,0,0-.4.84.881.881,0,0,0,.04.32c-1,1.72-2.56,4.279-4.719,7.6-2.88,5.279-5.839,8.638-8.839,10.038a44.53,44.53,0,0,0-4.879,1.84.507.507,0,0,1-.24.04,1.509,1.509,0,0,1-.719-.28,1.226,1.226,0,0,0-.6-.28c-.2,0-.4.2-.48.64h-.2c-1.6,0-3.2-.92-4.719-2.72l-1.28-2a3.9,3.9,0,0,1-.72-2.2,3.74,3.74,0,0,1-.36-1.84v-.88A5.955,5.955,0,0,0,0,77.794V76.515a2.194,2.194,0,0,1,.36-1.28,1.29,1.29,0,0,1-.24-.72,4.7,4.7,0,0,1,.32-1.16A2.728,2.728,0,0,0,.68,72.2a20.611,20.611,0,0,1,1.52-6c.759-1.88,1.559-3.76,2.359-5.64a4.034,4.034,0,0,0,.64-1.319,4.52,4.52,0,0,1,.72-1.28,1.894,1.894,0,0,1,.44-1.12,1.779,1.779,0,0,1,1.079-.679L6.079,58.678a.5.5,0,0,1,.04.239,2.344,2.344,0,0,1-.4,1,2.109,2.109,0,0,0-.32.92,1.758,1.758,0,0,0,.04.2,1.248,1.248,0,0,0-.64,1.08,1.531,1.531,0,0,1-.56,1.159l.16.16c-.32,0-.52.2-.56.6a2.153,2.153,0,0,1-.28.88c0,.08.04.12.04.16a1.187,1.187,0,0,1-.16.44l-.24.44c-.48,1.479-.88,2.96-1.2,4.4a.458.458,0,0,0-.36.439,1.572,1.572,0,0,0,.08.241,1.6,1.6,0,0,1,.079.28.707.707,0,0,1-.159.4V72a.685.685,0,0,1-.241.479c-.159.2-.279.32-.279.441s.08.2.2.32a3.406,3.406,0,0,0-.12,1.119,1.348,1.348,0,0,1-.36,1.08A.843.843,0,0,0,1,76a4.362,4.362,0,0,0-.16.96A3.475,3.475,0,0,0,1,78c-.041.479-.08.8-.08,1.12a6.636,6.636,0,0,0,.8,3.279c0,.08-.04.16-.04.24a6.011,6.011,0,0,0,1,2.48c.04,0,.44.519,1.28,1.559a1.938,1.938,0,0,0,1.64.8l.32.319h4.239a.812.812,0,0,1,.76-.319h.32a.811.811,0,0,0,.76-.32,12.81,12.81,0,0,0,5.439-3.079l.76-.76a1.511,1.511,0,0,0,.44-.76c.52-.6,1-1.24,1.48-1.88a6.44,6.44,0,0,0,1.2-2c1.2-1.92,2.44-3.758,3.64-5.718A34.255,34.255,0,0,0,27.915,67a1.549,1.549,0,0,1,.4-1.04,1.688,1.688,0,0,0,.44-1l-.16-.2c.24-.079.36-.279.36-.639v-.16a.47.47,0,0,1,.32-.52,30.864,30.864,0,0,0,.32-4.879c0-1.4-.04-3-.16-4.8a1.979,1.979,0,0,0-1.76-.719c-.24,0-.64.04-1.159.08a8.6,8.6,0,0,1-1,.12,14.233,14.233,0,0,0-5.039,5.439c-.4,0-.721-.28-1.04-.88q2.338-2.94,2.879-3.479a9.716,9.716,0,0,1,3.6-2.6h1.8a2.041,2.041,0,0,1,1.2.32,1.07,1.07,0,0,1,1,.64C30.275,53.4,30.475,53.758,30.475,53.758ZM15.117,23.924c.28,0,.48.28.76.559,0,.281-.24.48-.64.6-.4.161-.6.32-.679.561a18.585,18.585,0,0,1-1.84,3.879l.159.2a10.7,10.7,0,0,0-1.359,2.8,8.772,8.772,0,0,1-1.36,2.76,3.8,3.8,0,0,1-.6,1.48,5.552,5.552,0,0,0-.76,1.4,3.7,3.7,0,0,0-.719,1.12,1.083,1.083,0,0,1-.96.72,1.029,1.029,0,0,1-.48-.8,2.4,2.4,0,0,1,.88-1.44,3.49,3.49,0,0,0,.919-1.439c.84-1.8,2.2-4.48,4.08-7.959v-.52l2.4-3.879A.362.362,0,0,1,15.117,23.924Zm17.517-3.16a13.628,13.628,0,0,0-2.759,2.76,19.612,19.612,0,0,1-2.64,2.839,2.73,2.73,0,0,1-1.04,1.28,2.157,2.157,0,0,0-1,1.4,9.292,9.292,0,0,0-1,.76,1.116,1.116,0,0,0-.52.92v.2c-.44,0-.76.281-.96.88s-.48.92-.92.96a.431.431,0,0,1,.08.28c0,.16-.12.32-.36.56-.24.2-.36.36-.36.52l-.16-.16c-.72,1.04-1.759,2.6-3.079,4.719-.2.4-.56.96-1,1.72a.586.586,0,0,0-.32-.2.579.579,0,0,0-.16.36l.16.2h-.16a.484.484,0,0,0-.36.24,1,1,0,0,1-.2.28v.16a1.938,1.938,0,0,1-.52,1.16,2.208,2.208,0,0,0-.64,1.2,1.069,1.069,0,0,0-.84.84l.161.16a3.855,3.855,0,0,0-.641.96,1.655,1.655,0,0,1-.879.92l.359.32-.359.32a.65.65,0,0,0-.36-.16.726.726,0,0,0-.32.639c0,.361.04.521.04.641a2.262,2.262,0,0,1-.04.279.834.834,0,0,0-.32-.239,5.983,5.983,0,0,0-.4,1.119,1.53,1.53,0,0,1-.64.96,3.954,3.954,0,0,1-.68,1l.2.16A31.033,31.033,0,0,0,8.119,54.8l-.321-.16a.569.569,0,0,1,.281-.239.376.376,0,0,0,.239-.32.307.307,0,0,0-.04-.161.645.645,0,0,1-.2-.439,1.418,1.418,0,0,1,.52-.84,3.529,3.529,0,0,0,.6-.96,5.112,5.112,0,0,1,.68-1.4,2.656,2.656,0,0,0,.6-1.4c.68-.92,1.8-2.679,3.319-5.279a25.081,25.081,0,0,1,3.64-5.079l.16.16a28.406,28.406,0,0,1,4.519-7.439l5.439-6.918c-.16-.16-.24-.2-.32-.2l-.319.359a.772.772,0,0,0-.48-.2c-.161,0-.321.12-.52.44a1.028,1.028,0,0,1-.72.44.56.56,0,0,0-.44-.321.489.489,0,0,0-.36.16l-.72.48-.16-.16.16-.159c-.04-.121-.2-.161-.48-.161-.16.52-.56.76-1.24.76a4.187,4.187,0,0,1-.88-.119,7.359,7.359,0,0,0-.76-.121c-2.919-1.2-4.919-4-6.119-8.478,0-.08,0-.72-.039-1.92a3.328,3.328,0,0,1,.4-1.8,2.9,2.9,0,0,1,.039-.559.433.433,0,0,1,.32-.44c.041,0,.12-.04.16-.04.16,0,.28.12.36.319.16.32.32.52.44.561a3.415,3.415,0,0,0-.64,2.119,4.494,4.494,0,0,0,.16,1.28.942.942,0,0,0-.2.52,1.6,1.6,0,0,0,.32.8,1.539,1.539,0,0,1,.24.679c0,.081,0,.121-.04.161a1.722,1.722,0,0,1,.44,1.119,1.267,1.267,0,0,0,.76,1.08,2.358,2.358,0,0,0,.68,1.48,8.7,8.7,0,0,1,1.04,1.24l1.88.439a7.329,7.329,0,0,0,1.919.321,5.466,5.466,0,0,0,.76-.08,1.471,1.471,0,0,1,1-.321c.52,0,.84-.119,1-.4l.159.2c1.121-.6,2.76-1.64,4.92-3.04l.959-1.04a1.866,1.866,0,0,1,1.241-.64c.319.121.479.28.479.52a1.323,1.323,0,0,1-.16.56A1.649,1.649,0,0,0,32.634,20.764Z"/><path d="M32.077,32.322l-.24-.12c.121-.08.161-.119.161-.36a1.192,1.192,0,0,1-.081-.4,2.386,2.386,0,0,0-.479-.08,4.107,4.107,0,0,0-1.92,1.12l-2.24,5.2a10.776,10.776,0,0,1-3.4,4.239.533.533,0,0,1-.32.121c-.2,0-.36-.16-.52-.44-.12-.28-.28-.48-.48-.52a12.111,12.111,0,0,0,.76-.96,2.689,2.689,0,0,0,.72.12A1.976,1.976,0,0,0,25.678,39l1.16-1.959a5.488,5.488,0,0,0,.48-1.6,3.129,3.129,0,0,1,.64-1.52,12.554,12.554,0,0,1,1-2.44A2.685,2.685,0,0,1,31.078,30a1.113,1.113,0,0,1,.52-.119,1.978,1.978,0,0,1,1.439.84c0,.079.08.159.24.279A1.7,1.7,0,0,1,32.077,32.322Z"/><path d="M67.593,3.127a.593.593,0,0,1-.559.32c-.281-.08-.52-.36-.84-.84-.28-.44-.56-.68-.8-.68a1.161,1.161,0,0,0-.64.24,21.94,21.94,0,0,0-7.2,6.919c-1.96,2.8-3.8,5.679-5.639,8.479l.16.2,1.92-1a6.463,6.463,0,0,1,2.039-.76,1.063,1.063,0,0,1,.88-.36,2.837,2.837,0,0,1,1.04.08.688.688,0,0,0,.16.28c-.04,0-.96.36-2.84,1.08a9.274,9.274,0,0,0-2.6,1.479,3.829,3.829,0,0,1-1.12.84,3.566,3.566,0,0,0-1.24,1.2c-.92,1.92-2.079,4.439-3.479,7.639q-.36,1.2-1.8,5.279a42.688,42.688,0,0,0-1.559,5.319,3.859,3.859,0,0,0-.76,1.92A5.845,5.845,0,0,1,42.2,42.8c-.16.88-.44,2.48-.92,4.8a.818.818,0,0,0-.36.8v.2a1.128,1.128,0,0,1-.12.6c-.16,1.039-.4,2.559-.8,4.6l.28.281a.975.975,0,0,0-.24.719,1.8,1.8,0,0,0,.04.441,3.115,3.115,0,0,1,.08.559.888.888,0,0,1-.16.52.843.843,0,0,0,.16.44,1.383,1.383,0,0,1,.12.48.489.489,0,0,1-.16.36l-.76.48a5.418,5.418,0,0,1-.64-2.759,25.689,25.689,0,0,1,.64-4.36,3.682,3.682,0,0,0,.32-1.52V49.2a5.71,5.71,0,0,0,.4-1.521,3.708,3.708,0,0,1,.4-1.519,1.858,1.858,0,0,1,.24-.92,2.282,2.282,0,0,0,.32-.92,1.168,1.168,0,0,0-.08-.36,1,1,0,0,0,.28-.8V43a1.784,1.784,0,0,1,.16-.959l.76-1.92c0-.04.04-.08.04-.12.6-2.439,1.039-4.119,1.28-5a25.693,25.693,0,0,1,1.759-4.719,2.063,2.063,0,0,1,.48-1.28c.32-.88.92-2.2,1.72-3.96a9.558,9.558,0,0,1,1.12-2.719l1.479-2.52a.7.7,0,0,1-.039-.28,1.448,1.448,0,0,1,.519-1.04,1.736,1.736,0,0,0,.6-1.239,6.3,6.3,0,0,0,1.12-1.4l.92-1.6,4.119-6.119a23.336,23.336,0,0,1,4.959-5.479c.68-.4,1.72-.919,3.16-1.6a2.687,2.687,0,0,1,2.559,1.44Z"/><path d="M62.235,32.642a17.3,17.3,0,0,1-2.679,4.8,35.114,35.114,0,0,1-3.16,2.92,13.944,13.944,0,0,1-3.079.72,2.3,2.3,0,0,1-2-.92,3.252,3.252,0,0,1-.44-1.52c.04-.44.04-.88.04-1.32a33.78,33.78,0,0,1,3.72-4.639,8.211,8.211,0,0,1,5.479-2.8,3.661,3.661,0,0,1,1.36,1.2A3.493,3.493,0,0,1,62.235,32.642ZM60.6,31.362a2.7,2.7,0,0,0-1.24-.36c-.76,0-1.52.56-2.36,1.6a13.045,13.045,0,0,1-2.359,2.56.681.681,0,0,1-.04-.28c0-.36.279-.72.8-1.16a2.477,2.477,0,0,0,.92-1.08,7.241,7.241,0,0,0-2.8,2.44l.2-.2.44.44-.44.4-.2-.2a.82.82,0,0,1-.2.4l-.28-.2c-.24,0-.36.2-.36.639l.2-.2.44.4a1.009,1.009,0,0,0-.52.839.8.8,0,0,1-.56.8l-.2-.159a1.012,1.012,0,0,1-.04-.4,2.089,2.089,0,0,0-.16.84,3.978,3.978,0,0,0,.24,1.28l1.92.12a2.12,2.12,0,0,0,1.56-.56,2.6,2.6,0,0,0,2-1.2,6.18,6.18,0,0,1,1.76-1.68,7.9,7.9,0,0,1,1.04-1.679,3.156,3.156,0,0,0,.76-1.76A3.546,3.546,0,0,0,60.6,31.362Z"/><path d="M72.956,33.362A25.756,25.756,0,0,1,71.516,36a2.735,2.735,0,0,1-.52.8,3.782,3.782,0,0,0-.6.6,5.911,5.911,0,0,1-2.52,2.36L65.317,40.8h-.16a1.417,1.417,0,0,1-1.16-.56L62.877,39c.36-2.56,1.88-5.359,4.639-8.4.04,0,.08-.041.12-.041a1.606,1.606,0,0,1,.8.48,4.71,4.71,0,0,1-1.72,2.84,5.66,5.66,0,0,0-1.879,2.68,2.94,2.94,0,0,1-.2.959,2.905,2.905,0,0,0-.24.88.88.88,0,0,0,.68.84c.16,0,.319.04.48.04a4.19,4.19,0,0,0,2.519-.88,18.144,18.144,0,0,0,2.56-2.919c.04-.08.6-1.12,1.56-3.04a9.88,9.88,0,0,1,2.319-3.159c.36.32.56.56.56.64a2.8,2.8,0,0,1-.4,1A7.185,7.185,0,0,0,72.956,33.362Z"/><path d="M88.474,69.556a1.377,1.377,0,0,1-.32.72c-1.079,1.04-2.239,2.12-3.4,3.119a6.406,6.406,0,0,1-3.92,1.76H79.476c-.4,0-1.2-.56-2.36-1.64a7.727,7.727,0,0,1-1.72-3.239c.081-.12.161-.2.161-.32a.894.894,0,0,0-.2-.4,1.842,1.842,0,0,1-.2-.36c0-.12.08-.2.2-.32a6.2,6.2,0,0,1-.4-2.6c0-.4,0-.8.04-1.24a1.2,1.2,0,0,1-.2-.64c0-.36.2-.68.2-.92a3.722,3.722,0,0,0,.2-.96,1.489,1.489,0,0,0-.04-.439l.559-2.68.68-1.92a9.085,9.085,0,0,1,.6-2.04,4.145,4.145,0,0,1,.52-1.839c.32-.641.64-1.24.96-1.76l.08-.12c0-.04.08-.12.2-.24a1.732,1.732,0,0,1-.04-.2,1.857,1.857,0,0,1,.32-.84,1.989,1.989,0,0,0,.36-1.159,1.2,1.2,0,0,1,.36-.761,1.254,1.254,0,0,0,.32-.72c0-.04-.04-.12-.04-.159a2.005,2.005,0,0,0,.4-.88,3.539,3.539,0,0,1,.32-.8A6.087,6.087,0,0,0,82,44.08q.72-1.62.959-2.039l.88-2.84a12.78,12.78,0,0,0,1.52-2.84,8.025,8.025,0,0,0,.72-2.719,1.5,1.5,0,0,0-.04-.44,1.492,1.492,0,0,0-.48-.08,1.794,1.794,0,0,0-.44.04h-.2a.978.978,0,0,1-.72-.24l-2.719,1.32c-.48.52-1.68,1.56-3.6,3.159a15.087,15.087,0,0,0-3.279,3.48c-.36,0-.56.08-.64.24l-.88-.68,1.16-1.8a3.652,3.652,0,0,0,.639-1.959,9.738,9.738,0,0,0,1.68-3,7.83,7.83,0,0,1,1.84-2.959.807.807,0,0,1,.44.719,2.035,2.035,0,0,1-.4,1,2.879,2.879,0,0,0-.48.92l-1.32,2.28a4.624,4.624,0,0,0-.679,2.119V38a31.359,31.359,0,0,1,5.318-4,3.612,3.612,0,0,1,2.64-2c.88-.16,1.76-.28,2.64-.48a3.307,3.307,0,0,0,.759.32.691.691,0,0,1,.48.52c0,.2.04.4.04.6a2.988,2.988,0,0,1-.359,1.24A14.573,14.573,0,0,0,87,35.6l-2.56,3.879-.08.36a24.943,24.943,0,0,0-1.52,3.439,13.893,13.893,0,0,1-1.719,3.4,7.71,7.71,0,0,1-.72,1.56A5.052,5.052,0,0,0,79.8,50c-.28.439-.68,1-1.2,1.719,0-.04-.16.44-.48,1.4a2.677,2.677,0,0,1-.48,1.439,2.845,2.845,0,0,0-.52,1.28,1.566,1.566,0,0,0,.12.56,2.657,2.657,0,0,0-.6,1.56,1.107,1.107,0,0,0,.04.36,12.587,12.587,0,0,0-.8,3.119c-.16,1.08-.279,2.16-.48,3.24a.809.809,0,0,1,.241.6.781.781,0,0,1-.04.28,1.559,1.559,0,0,0-.08.56c0,.16,0,.28.08.319v.24a15.691,15.691,0,0,0,.44,3c0,.04-.04.12-.04.159a1.731,1.731,0,0,0,.319.8,1.991,1.991,0,0,1,.36.88.852.852,0,0,1-.2.52c.04.08.159.16.4.2l.16-.12.28.759.16.84c.12-.04.2-.28.24-.639a1.712,1.712,0,0,0,.68.519,1.187,1.187,0,0,1,.64.6,8,8,0,0,1,1.04.16,6.168,6.168,0,0,0,.759.08.782.782,0,0,0,.321-.04,10.767,10.767,0,0,0,6.319-4.919,5.363,5.363,0,0,1,.759-.32A.485.485,0,0,1,88.474,69.556Z"/><path d="M117.632,5.487a53.581,53.581,0,0,0-3.88,6.079l-3.4,6.2a13.861,13.861,0,0,1-.96,1.92,18.292,18.292,0,0,0-.919,1.919c-.8,1.6-2.12,3.879-3.92,6.839a43.552,43.552,0,0,0-3.479,6.959,4.686,4.686,0,0,1-.88.72,1.244,1.244,0,0,1-.56-1A4.071,4.071,0,0,1,100,33.8a4.072,4.072,0,0,0,.359-1.24q0-.84-1.2-1.08a4.373,4.373,0,0,1-1.04.76c-.76.32-1.159.48-1.2.52-1.48,1-3.04,1.96-4.52,2.96-1.719,1.119-2.479,2.4-2.479,3.759a3.282,3.282,0,0,0,.08.88,1.086,1.086,0,0,0,.68.24,2.414,2.414,0,0,0,.96-.24l.919-.4c1.08-.56,2.64-1.28,4.719-2.16A1.03,1.03,0,0,1,98,37.4a2.756,2.756,0,0,1-1.52,1.24,3.312,3.312,0,0,0-1.56,1.32.593.593,0,0,0-.28-.04,2.085,2.085,0,0,0-.96.32,11.416,11.416,0,0,1-1.159.64l-.161-.16a3.156,3.156,0,0,1-1.839,1.2,1.277,1.277,0,0,1-.56-.119,1.592,1.592,0,0,1-1.24-1.52,5.155,5.155,0,0,1,.36-1.56,9.2,9.2,0,0,0,.4-1.36,3.861,3.861,0,0,0,1.28-1.84,10.045,10.045,0,0,1,3.2-2.2,13.252,13.252,0,0,0,3.359-2.04,4.21,4.21,0,0,1,1.32-.48l1.4-.24,1.24,1.36a2.152,2.152,0,0,0,1.08-1.8q1.26-1.68,1.68-2.4c.439-.76.96-1.6,1.519-2.44a38.833,38.833,0,0,1,3.32-6.038,7.452,7.452,0,0,1,1.28-2.76,13.408,13.408,0,0,0,1.4-2.72c.56-.959,1.44-2.359,2.76-4.2a1.824,1.824,0,0,1,.4-.84,8.809,8.809,0,0,0,.521-.76,14.261,14.261,0,0,1,1.68-3.159Z"/><path d="M113.794,32.722l-.12.2a2.576,2.576,0,0,1-.439.48,7.23,7.23,0,0,1-1.96,1.28c-1,.32-2,.68-3,1.04a8.647,8.647,0,0,0-1.76.239,7.291,7.291,0,0,1-1.8.281,1.52,1.52,0,0,0-.679-.2c-.08,0-.12.04-.161.04a3.428,3.428,0,0,0-.2,1.279,8.4,8.4,0,0,0,.08,1,3.362,3.362,0,0,0,2.36,1.64.584.584,0,0,1,.56-.4,1.964,1.964,0,0,1,.48.12,1.97,1.97,0,0,0,.479.12,2.791,2.791,0,0,0,1.281-.4c.479-.24.879-.48,1.28-.72l.239.2a.828.828,0,0,1,.4-.2l.44.44a2.516,2.516,0,0,1-1.52.96,6.875,6.875,0,0,0-1.679.52,5.158,5.158,0,0,1-1.6.24,4.895,4.895,0,0,1-1.64-.24,9.33,9.33,0,0,1-2.359-3,9.2,9.2,0,0,0-.04-1.479,1.332,1.332,0,0,1,.68-.641L103.756,34a15.91,15.91,0,0,1,6.839-3.8c.08.12.24.16.52.16h.8a4.99,4.99,0,0,1,1.719,2.4Zm-2.838-1a1.938,1.938,0,0,0-.96-.4.964.964,0,0,0-.76.48c-2.361.52-3.2,1.52-4.8,3.32a3.043,3.043,0,0,0-.319.44h.359c1.24,0,2.76-.92,3.56-.92a4.277,4.277,0,0,1,1.759-.76,8.169,8.169,0,0,0,1.64-.64,1.121,1.121,0,0,0,.44-1.04A2.867,2.867,0,0,1,110.956,31.722Z"/><path d="M125.434,32.042c-.04-.24-.239-.36-.519-.439-.441-.081-.68-.121-.68-.121l-2.48.6-1.6,1.039a6.1,6.1,0,0,0-1.36,1.28,4.705,4.705,0,0,0-1.639,1.76,6.769,6.769,0,0,1-1.04,1.479,16.6,16.6,0,0,0-1.32,2.48.954.954,0,0,1-1,.96,1.3,1.3,0,0,1-.96-.6c.92-1.36,2-3.16,3.2-5.359,1.32-2.52,2.32-4.359,3-5.439.319.24.479.44.479.64a2.18,2.18,0,0,1-.319.6,1.539,1.539,0,0,0-.321.96,7.112,7.112,0,0,1-1.4,2.04,3.139,3.139,0,0,0-1.04,1.72c0,.08.04.12.04.16a50.266,50.266,0,0,1,3.56-3.719c.239-.041.519-.121.839-.161a.638.638,0,0,0,.48-.56,3.316,3.316,0,0,0,1.92-.92c1.079-.079,1.72-.079,1.88-.079a1.685,1.685,0,0,1,1.439,1C126.514,31.6,126.154,31.842,125.434,32.042Z"/></svg>