<?xml version="1.0" encoding="UTF-8" standalone="no"?><!-- Generator: Gravit.io --><svg xmlns="http://www.w3.org/2000/svg" xmlns:xlink="http://www.w3.org/1999/xlink" style="isolation:isolate" viewBox="0 0 42 42.083" width="42pt" height="42.083pt"><defs><clipPath id="_clipPath_fky02Sgw8wxoE5t25W6QlcsDNehMgMM3"><rect width="42" height="42.083"/></clipPath></defs><g clip-path="url(#_clipPath_fky02Sgw8wxoE5t25W6QlcsDNehMgMM3)"><g><path d=" M 37.815 11.552 L 37.816 11.552 L 25.216 0 L 25.216 8.313 L 25.115 8.313 L 25.115 8.313 L 24.354 8.313 L 17.444 8.313 L 16.683 8.313 L 16.683 33.569 L 8.188 33.569 L 17.444 42.083 L 25.115 42.083 L 25.115 33.57 L 29.371 33.57 C 36.346 33.57 42 27.917 42 20.941 C 42 17.213 40.384 13.863 37.815 11.552 Z  M 29.371 25.215 L 25.115 25.215 L 25.115 16.668 L 29.371 16.668 C 31.731 16.668 33.644 18.581 33.644 20.941 C 33.644 23.302 31.731 25.215 29.371 25.215 Z " fill="rgb(111,111,111)"/><path d=" M 8.214 8.36 L 0 8.36 L 8.214 15.941 L 8.214 8.36 Z " fill="rgb(111,111,111)"/></g><rect x="0" y="1" width="25.216" height="8.36" transform="matrix(1,0,0,1,0,0)" fill="rgb(255,255,255)"/><rect x="8.214" y="8.36" width="8.469" height="25.21" transform="matrix(1,0,0,1,0,0)" fill="rgb(255,255,255)"/></g></svg>